<?xml version="1.0" standalone="no"?>
<!DOCTYPE svg PUBLIC "-//W3C//DTD SVG 20010904//EN"
 "http://www.w3.org/TR/2001/REC-SVG-20010904/DTD/svg10.dtd">
<svg version="1.0" xmlns="http://www.w3.org/2000/svg"
 width="256.000000pt" height="256.000000pt" viewBox="0 0 256.000000 256.000000"
 preserveAspectRatio="xMidYMid meet">
<metadata>
Created by potrace 1.14, written by Peter Selinger 2001-2017
</metadata>
<g transform="translate(0.000000,256.000000) scale(0.100000,-0.100000)"
fill="#000000" stroke="none">
<path d="M39 2530 c-15 -9 -16 -116 -16 -1250 -1 -1150 1 -1241 16 -1250 10
-5 540 -9 1244 -9 1039 0 1229 3 1241 14 12 12 14 203 14 1242 0 705 -4 1235
-9 1245 -8 15 -99 16 -1241 17 -721 0 -1240 -4 -1249 -9z m797 -432 l-1 -373
-372 -1 -373 -2 0 374 0 374 373 0 374 0 -1 -372z m814 255 c1 -209 1 -577 1
-604 l-1 -27 -370 0 c-335 0 -370 2 -371 17 -1 21 -1 667 0 704 l1 27 370 0
370 0 0 -117z m820 -257 l0 -374 -374 0 -373 1 0 373 0 374 374 0 373 0 0
-374z m-1639 -445 c12 -2 7 -741 -5 -742 -42 -3 -714 -4 -723 -1 -10 3 -13 87
-13 372 l0 369 28 3 c22 2 694 2 713 -1z m817 -366 c1 -216 -2 -371 -7 -374
-13 -8 -720 -6 -728 2 -5 5 -8 632 -4 719 1 9 11 18 24 20 12 2 177 3 367 3
l345 -1 3 -369z m820 -3 c2 -349 1 -372 -15 -373 -10 0 -178 -1 -373 -2 l-355
-1 -1 372 c-1 328 0 371 14 374 9 2 176 3 371 2 l356 -1 3 -371z m-1633 -817
l0 -370 -372 -3 -373 -2 0 374 0 374 373 -2 372 -1 0 -370z m816 346 c1 -34 1
-299 0 -533 l-1 -188 -372 0 -373 0 2 367 c1 203 2 371 2 375 1 3 168 6 371 6
l370 0 1 -27z m817 -349 l2 -372 -372 2 -373 3 -1 371 -2 372 372 -2 371 -1 3
-373z"/>
<path d="M312 2248 c-20 -20 -14 -33 43 -89 30 -30 55 -57 55 -62 0 -4 -22
-28 -48 -55 -27 -26 -51 -55 -55 -64 -6 -16 15 -48 32 -48 3 0 33 26 65 59
l58 59 60 -58 c60 -58 89 -68 103 -32 6 15 -12 39 -72 96 -18 17 -33 35 -33
40 0 4 25 33 55 64 30 31 55 59 55 63 0 11 -30 39 -41 39 -6 0 -34 -25 -64
-55 -29 -30 -56 -55 -59 -55 -4 0 -32 25 -63 55 -59 57 -71 63 -91 43z"/>
<path d="M2025 2294 c-143 -53 -185 -238 -78 -348 38 -39 115 -67 168 -62 175
19 254 240 129 361 -58 55 -148 75 -219 49z m149 -79 c60 -40 81 -143 39 -199
-66 -89 -201 -78 -244 20 -27 59 -17 115 27 159 47 47 124 55 178 20z"/>
<path d="M1125 1419 c-7 -21 11 -47 80 -110 l30 -27 -58 -57 c-62 -61 -72 -97
-31 -103 15 -2 38 14 77 54 l56 56 58 -56 c61 -60 95 -70 101 -29 2 15 -14 38
-53 77 l-57 56 57 56 c39 39 55 63 53 78 -6 40 -41 30 -101 -29 l-57 -56 -56
55 c-59 59 -88 69 -99 35z"/>
<path d="M2001 1469 c-47 -24 -96 -83 -110 -135 -22 -81 14 -177 87 -228 35
-25 53 -30 112 -33 63 -2 73 0 117 30 128 86 131 263 5 351 -58 41 -147 47
-211 15z m166 -69 c46 -28 66 -64 67 -120 2 -138 -172 -192 -255 -80 -88 118
62 277 188 200z"/>
<path d="M400 664 c-90 -27 -154 -126 -145 -223 18 -176 235 -250 362 -123 55
55 75 165 41 232 -48 98 -153 145 -258 114z m137 -78 c39 -19 76 -93 70 -135
-13 -78 -78 -132 -154 -126 -102 8 -160 113 -113 205 36 70 123 95 197 56z"/>
<path d="M1960 622 c-41 -14 -33 -37 39 -109 l50 -50 -60 -59 c-32 -32 -59
-62 -59 -65 0 -10 29 -39 39 -39 4 0 33 25 65 55 31 30 60 55 64 55 4 0 32
-25 62 -55 30 -30 58 -55 62 -55 9 0 38 30 38 39 0 5 -25 33 -55 64 -30 30
-55 58 -55 61 0 3 25 31 55 62 30 32 55 61 55 65 0 10 -29 39 -39 39 -3 0 -31
-25 -61 -55 -30 -30 -58 -55 -62 -55 -5 0 -28 19 -51 43 -59 58 -70 65 -87 59z"/>
</g>
</svg>
